<svg id="Layer_1" data-name="Layer 1" xmlns="http://www.w3.org/2000/svg" xmlns:xlink="http://www.w3.org/1999/xlink" viewBox="0 0 340.12 358.08"><defs><style>.cls-1{opacity:0.55;}.cls-2{stroke:#fff;stroke-width:3.09px;fill:url(#Analogous_2);}.cls-3{fill:url(#linear-gradient);}.cls-4{fill:url(#Analogous_2-2);}.cls-5{font-size:37.48px;fill:#0071bc;font-family:MyriadPro-Bold, MyriadPro Bold;font-weight:700;}.cls-6{letter-spacing:0em;}</style><linearGradient id="Analogous_2" x1="500.88" y1="172.24" x2="501.38" y2="172.24" gradientUnits="userSpaceOnUse"><stop offset="0" stop-color="#00a995"/><stop offset="0.5" stop-color="#006eb9"/><stop offset="1" stop-color="#00aa4f"/></linearGradient><linearGradient id="linear-gradient" x1="135" y1="146.75" x2="371.79" y2="146.75" gradientUnits="userSpaceOnUse"><stop offset="0" stop-color="#8b9298"/><stop offset="0" stop-color="#868397"/><stop offset="0" stop-color="#775c94"/><stop offset="0" stop-color="#662d91"/><stop offset="0" stop-color="#713c99"/><stop offset="0" stop-color="#8d63ad"/><stop offset="0" stop-color="#bba2ce"/><stop offset="0" stop-color="#faf8fb"/><stop offset="0" stop-color="#fff"/><stop offset="0.02" stop-color="#f9fdfd"/><stop offset="0.06" stop-color="#e8f7f6"/><stop offset="0.09" stop-color="#cceeec"/><stop offset="0.13" stop-color="#a6e1dd"/><stop offset="0.67" stop-color="#00a99d"/><stop offset="1" stop-color="#662d91"/><stop offset="1" stop-color="#ab2459"/><stop offset="1" stop-color="#ec1c24"/></linearGradient><linearGradient id="Analogous_2-2" x1="188.79" y1="128.34" x2="354.14" y2="128.34" xlink:href="#Analogous_2"/></defs><title>logo</title><g class="cls-1"><path class="cls-2" d="M269.08,325.43a128.75,128.75,0,1,1,125.85-156,156.4,156.4,0,1,0-124,156Z" transform="translate(-80.34 -14.15)"/></g><g class="cls-1"><path class="cls-3" d="M276.6,262.62a97.39,97.39,0,1,1,95.19-118A118.31,118.31,0,1,0,278,262.6Z" transform="translate(-80.34 -14.15)"/></g><g class="cls-1"><path class="cls-4" d="M287.66,209.25a68,68,0,1,1,66.48-82.39,82.63,82.63,0,1,0-65.51,82.37Z" transform="translate(-80.34 -14.15)"/></g><text class="cls-5" transform="translate(4.48 348.71) scale(1.65 1)">BEP<tspan class="cls-6" x="58.69" y="0">R</tspan><tspan x="78.96" y="0">OWITH</tspan></text><text x="-80.34" y="-14.15"/><text x="-80.34" y="-14.15"/></svg>